<svg width="11" height="14" viewBox="0 0 11 14" fill="none" xmlns="http://www.w3.org/2000/svg">
<path d="M9.9489 1.75H7.62683V1.31C7.62683 0.59 7.05631 0 6.35569 0H4.65417C3.95354 0 3.38303 0.59 3.38303 1.31V1.75H1.06095C0.470421 1.75 0 2.24 0 2.84V3.72C0 3.96 0.19017 4.16 0.420376 4.16H10.5795C10.8097 4.16 10.9998 3.96 10.9998 3.72V2.84C11.0099 2.24 10.5394 1.75 9.9489 1.75ZM4.23379 1.31C4.23379 1.07 4.42396 0.87 4.65417 0.87H6.34568C6.57589 0.87 6.76606 1.07 6.76606 1.31V1.75H4.23379V1.31Z" fill="#999999"/>
<path d="M0.800752 5.03C0.720681 5.03 0.660627 5.1 0.670636 5.17L1.02095 12.75C1.05098 13.45 1.61148 14 2.29209 14H8.71784C9.39845 14 9.95895 13.45 9.98897 12.75L10.3393 5.17C10.3393 5.09 10.2792 5.03 10.2092 5.03H0.800752ZM7.19648 6.13C7.19648 5.89 7.38665 5.69 7.61685 5.69C7.84706 5.69 8.03723 5.89 8.03723 6.13V11.82C8.03723 12.06 7.84706 12.26 7.61685 12.26C7.38665 12.26 7.19648 12.06 7.19648 11.82V6.13ZM5.08459 6.13C5.08459 5.89 5.27476 5.69 5.50496 5.69C5.73517 5.69 5.92534 5.89 5.92534 6.13V11.82C5.92534 12.06 5.73517 12.26 5.50496 12.26C5.27476 12.26 5.08459 12.06 5.08459 11.82V6.13ZM2.96269 6.13C2.96269 5.89 3.15286 5.69 3.38306 5.69C3.61327 5.69 3.80344 5.89 3.80344 6.13V11.82C3.80344 12.06 3.61327 12.26 3.38306 12.26C3.15286 12.26 2.96269 12.06 2.96269 11.82V6.13Z" fill="#999999"/>
</svg>
